HIERARCHY
ROOT hip
{
  OFFSET 0 0 0
  CHANNELS 6 Xposition Yposition Zposition Zrotation Yrotation Xrotation
  JOINT abdomen
  {
    OFFSET 0 20.6881 -0.73152
    CHANNELS 3 Zrotation Xrotation Yrotation
    JOINT chest
    {
      OFFSET 0 11.7043 -0.48768
      CHANNELS 3 Zrotation Xrotation Yrotation
      JOINT neck
      {
        OFFSET 0 22.1894 -2.19456
        CHANNELS 3 Zrotation Xrotation Yrotation
        JOINT head
        {
          OFFSET -0.24384 7.07133 1.2192
          CHANNELS 3 Zrotation Xrotation Yrotation
          JOINT leftEye
          {
            OFFSET 4.14528 8.04674 8.04672
            CHANNELS 3 Zrotation Xrotation Yrotation
            End Site
            {
              OFFSET 1 0 0
            }
          }
          JOINT rightEye
          {
            OFFSET -3.6576 8.04674 8.04672
            CHANNELS 3 Zrotation Xrotation Yrotation
            End Site
            {
              OFFSET 1 0 0
            }
          }
        }
      }
      JOINT rCollar
      {
        OFFSET -2.68224 19.2634 -4.8768
        CHANNELS 3 Zrotation Xrotation Yrotation
        JOINT rShldr
        {
          OFFSET -8.77824 -1.95073 1.46304
          CHANNELS 3 Zrotation Xrotation Yrotation
          JOINT rForeArm
          {
            OFFSET -28.1742 -1.7115 0.48768
            CHANNELS 3 Zrotation Xrotation Yrotation
            JOINT rHand
            {
              OFFSET -22.5879 0.773209 7.07136
              CHANNELS 3 Zrotation Xrotation Yrotation
              JOINT rThumb1
              {
                OFFSET -1.2192 -0.487915 3.41376
                CHANNELS 3 Zrotation Xrotation Yrotation
                JOINT rThumb2
                {
                  OFFSET -3.37035 -0.52449 3.41376
                  CHANNELS 3 Zrotation Xrotation Yrotation
                  End Site
                  {
                    OFFSET -1.78271 -1.18214 1.43049
                  }
                }
              }
              JOINT rIndex1
              {
                OFFSET -7.75947 0.938293 5.60832
                CHANNELS 3 Zrotation Xrotation Yrotation
                JOINT rIndex2
                {
                  OFFSET -2.54057 -0.884171 1.56538
                  CHANNELS 3 Zrotation Xrotation Yrotation
                  End Site
                  {
                    OFFSET -1.62519 -0.234802 1.16502
                  }
                }
              }
              JOINT rMid1
              {
                OFFSET -8.24714 1.18213 3.41376
                CHANNELS 3 Zrotation Xrotation Yrotation
                JOINT rMid2
                {
                  OFFSET -3.10165 -0.590103 1.0647
                  CHANNELS 3 Zrotation Xrotation Yrotation
                  End Site
                  {
                    OFFSET -2.48547 -0.328903 0.83742
                  }
                }
              }
              JOINT rRing1
              {
                OFFSET -8.82822 0.546677 1.51678
                CHANNELS 3 Zrotation Xrotation Yrotation
                JOINT rRing2
                {
                  OFFSET -2.60934 -0.819778 -0.0198488
                  CHANNELS 3 Zrotation Xrotation Yrotation
                  End Site
                  {
                    OFFSET -2.33842 -0.294052 0.168128
                  }
                }
              }
              JOINT rPinky1
              {
                OFFSET -8.27202 -0.0477905 -0.4584
                CHANNELS 3 Zrotation Xrotation Yrotation
                JOINT rPinky2
                {
                  OFFSET -1.82734 -0.647385 -0.700984
                  CHANNELS 3 Zrotation Xrotation Yrotation
                  End Site
                  {
                    OFFSET -1.69225 -0.51767 -0.607171
                  }
                }
              }
            }
          }
        }
      }
      JOINT lCollar
      {
        OFFSET 2.68224 19.2634 -4.8768
        CHANNELS 3 Zrotation Xrotation Yrotation
        JOINT lShldr
        {
          OFFSET 8.77824 -1.95073 1.46304
          CHANNELS 3 Zrotation Xrotation Yrotation
          JOINT lForeArm
          {
            OFFSET 28.1742 -1.7115 0.48768
            CHANNELS 3 Zrotation Xrotation Yrotation
            JOINT lHand
            {
              OFFSET 22.5879 0.773209 7.07136
              CHANNELS 3 Zrotation Xrotation Yrotation
              JOINT lThumb1
              {
                OFFSET 1.2192 -0.487915 3.41376
                CHANNELS 3 Zrotation Xrotation Yrotation
                JOINT lThumb2
                {
                  OFFSET 3.37035 -0.52449 3.41376
                  CHANNELS 3 Zrotation Xrotation Yrotation
                  End Site
                  {
                    OFFSET 1.78271 -1.18214 1.43049
                  }
                }
              }
              JOINT lIndex1
              {
                OFFSET 7.75947 0.938293 5.60832
                CHANNELS 3 Zrotation Xrotation Yrotation
                JOINT lIndex2
                {
                  OFFSET 2.54057 -0.884171 1.56538
                  CHANNELS 3 Zrotation Xrotation Yrotation
                  End Site
                  {
                    OFFSET 1.62519 -0.234802 1.16502
                  }
                }
              }
              JOINT lMid1
              {
                OFFSET 8.24714 1.18213 3.41376
                CHANNELS 3 Zrotation Xrotation Yrotation
                JOINT lMid2
                {
                  OFFSET 3.10165 -0.590103 1.0647
                  CHANNELS 3 Zrotation Xrotation Yrotation
                  End Site
                  {
                    OFFSET 2.48547 -0.328903 0.83742
                  }
                }
              }
              JOINT lRing1
              {
                OFFSET 8.82822 0.546677 1.51678
                CHANNELS 3 Zrotation Xrotation Yrotation
                JOINT lRing2
                {
                  OFFSET 2.60934 -0.819778 -0.0198488
                  CHANNELS 3 Zrotation Xrotation Yrotation
                  End Site
                  {
                    OFFSET 2.33842 -0.294052 0.168128
                  }
                }
              }
              JOINT lPinky1
              {
                OFFSET 8.27202 -0.0477905 -0.4584
                CHANNELS 3 Zrotation Xrotation Yrotation
                JOINT lPinky2
                {
                  OFFSET 1.82734 -0.647385 -0.700984
                  CHANNELS 3 Zrotation Xrotation Yrotation
                  End Site
                  {
                    OFFSET 1.69225 -0.51767 -0.607171
                  }
                }
              }
            }
          }
        }
      }
    }
  }
  JOINT rButtock
  {
    OFFSET -8.77824 4.35084 1.2192
    CHANNELS 3 Zrotation Xrotation Yrotation
    JOINT rThigh
    {
      OFFSET 0 -1.70687 -2.19456
      CHANNELS 3 Zrotation Xrotation Yrotation
      JOINT rShin
      {
        OFFSET 0 -36.8199 0.73152
        CHANNELS 3 Zrotation Xrotation Yrotation
        JOINT rFoot
        {
          OFFSET 0.73152 -45.1104 -5.12064
          CHANNELS 3 Zrotation Xrotation Yrotation
          End Site
          {
            OFFSET -1.1221 -3.69964 12.103
          }
        }
      }
    }
  }
  JOINT lButtock
  {
    OFFSET 8.77824 4.35084 1.2192
    CHANNELS 3 Zrotation Xrotation Yrotation
    JOINT lThigh
    {
      OFFSET 0 -1.70687 -2.19456
      CHANNELS 3 Zrotation Xrotation Yrotation
      JOINT lShin
      {
        OFFSET 0 -36.8199 0.73152
        CHANNELS 3 Zrotation Xrotation Yrotation
        JOINT lFoot
        {
          OFFSET -0.73152 -45.1104 -5.12064
          CHANNELS 3 Zrotation Xrotation Yrotation
          End Site
          {
            OFFSET 1.1221 -3.69964 12.103
          }
        }
      }
    }
  }
}
MOTION
Frames:	7
Frame Time:	0.00833333
95.5622 79.0819 79.1171 -7.5611 58.7471 -1.0253 -4.55491 13.9201 -9.22319 4.53766 -8.24115 -2.41529 -4.47393 -1.64623 -9.77034 16.7582 20.2748 -20.1867 -0.0 0.0 0.0 -0.0 0.0 0.0 -2.84876e-13 4.47388e-13 1.08897e-12 55.0456 36.7846 3.46366 -22.1491 -15.9832 44.1929 -0.0107513 -2.95952 -0.416307 -3.75833e-10 4.43899e-09 -1.7537e-09 -6.45314e-10 7.65145e-09 -3.02446e-09 -3.75831e-10 4.439e-09 -1.75371e-09 7.73091 5.47488 0.417314 -3.75833e-10 4.43899e-09 -1.7537e-09 2.90554 0.965183 0.102902 -3.75826e-10 4.43899e-09 -1.7537e-09 10.2786 0.731801 0.0259123 -3.75838e-10 4.43899e-09 -1.7537e-09 2.22167 -0.733487 -0.20892 -2.84776e-13 4.47377e-13 1.08869e-12 -47.6023 46.6051 -41.3143 25.6909 -22.6661 -55.5207 0.680727 -22.762 3.38062 -1.04471e-09 2.98879e-09 -1.9615e-09 -1.76717e-09 5.32524e-09 -3.42389e-09 -1.04472e-09 2.9888e-09 -1.96149e-09 -7.73091 5.47488 -0.417314 -1.04471e-09 2.9888e-09 -1.9615e-09 -2.90554 0.965183 -0.102902 -1.04472e-09 2.98879e-09 -1.9615e-09 -10.2786 0.731801 -0.0259123 -1.04471e-09 2.98879e-09 -1.96151e-09 -2.22167 -0.733487 0.20892 -2.03217e-16 0.0 -3.88251e-19 -4.86898 -42.0181 -18.3812 -0.723945 53.8405 1.27735 -1.03436 -28.7724 -1.51652 2.03217e-16 0.0 3.88251e-19 16.8807 -32.1694 10.0479 0.884057 60.1515 -2.14072 7.99618 -37.3946 12.1799
95.0883 79.0855 81.432 -8.6361 60.1126 -2.2107 -4.37039 14.0627 -9.81117 4.57905 -8.24661 -2.57483 -4.44995 -1.46496 -9.88479 17.0597 20.3884 -20.4806 -0.0 0.0 0.0 -0.0 0.0 0.0 -1.54068e-13 2.40417e-13 8.09203e-13 55.983 37.0636 2.48033 -22.3074 -16.2264 44.6271 -0.0117117 -3.09068 -0.434792 -5.036e-10 3.02877e-09 -1.35755e-09 -8.66848e-10 5.22076e-09 -2.34215e-09 -5.03598e-10 3.02878e-09 -1.35756e-09 7.73091 5.47488 0.417314 -5.03601e-10 3.02877e-09 -1.35755e-09 2.90554 0.965183 0.102902 -5.03594e-10 3.02877e-09 -1.35755e-09 10.2786 0.731801 0.0259123 -5.03606e-10 3.02877e-09 -1.35754e-09 2.22167 -0.733487 -0.20892 -1.53962e-13 2.4042e-13 8.08954e-13 -47.8965 46.8008 -40.9928 25.6165 -22.4878 -55.2314 0.685104 -22.8305 3.39196 -1.06636e-09 9.20636e-10 -1.17776e-09 -1.81835e-09 1.71696e-09 -2.06635e-09 -1.06636e-09 9.20646e-10 -1.17775e-09 -7.73091 5.47488 -0.417314 -1.06636e-09 9.20643e-10 -1.17777e-09 -2.90554 0.965183 -0.102902 -1.06637e-09 9.20635e-10 -1.17776e-09 -10.2786 0.731801 -0.0259123 -1.06636e-09 9.20637e-10 -1.17777e-09 -2.22167 -0.733487 0.20892 -2.03217e-16 0.0 -3.88251e-19 -4.83889 -41.7255 -18.6723 -0.720725 53.8651 1.29948 -1.35615 -29.5464 -2.07586 2.03217e-16 0.0 3.88251e-19 15.9255 -32.1319 7.9078 0.834892 59.4268 -2.12204 8.85718 -38.7059 13.1162
94.6087 79.0478 83.7261 -9.8241 61.4586 -3.5146 -4.15764 14.2286 -10.3891 4.60706 -8.27238 -2.73057 -4.44483 -1.28136 -10.0061 17.3846 20.492 -20.7862 -0.0 0.0 0.0 -0.0 0.0 0.0 -1.58361e-14 2.01337e-14 4.77153e-13 56.9797 37.284 1.46195 -22.4652 -16.4724 45.0654 -0.0125987 -3.20554 -0.450984 -6.02055e-10 1.31431e-09 -8.13828e-10 -1.03811e-09 2.26528e-09 -1.40519e-09 -6.02054e-10 1.31431e-09 -8.13842e-10 7.73091 5.47488 0.417314 -6.02057e-10 1.31431e-09 -8.13834e-10 2.90554 0.965183 0.102902 -6.02051e-10 1.3143e-09 -8.13831e-10 10.2786 0.731801 0.0259123 -6.02063e-10 1.31431e-09 -8.13825e-10 2.22167 -0.733487 -0.20892 -1.57357e-14 2.01491e-14 4.76936e-13 -48.1821 46.962 -40.6686 25.5404 -22.3078 -54.938 0.691611 -22.9318 3.40875 -1.00749e-09 -9.90131e-10 -3.9097e-10 -1.73055e-09 -1.62463e-09 -7.01241e-10 -1.00749e-09 -9.90118e-10 -3.9096e-10 -7.73091 5.47488 -0.417314 -1.00748e-09 -9.90121e-10 -3.90976e-10 -2.90554 0.965183 -0.102902 -1.0075e-09 -9.90129e-10 -3.90968e-10 -10.2786 0.731801 -0.0259123 -1.00749e-09 -9.90127e-10 -3.90969e-10 -2.22167 -0.733487 0.20892 -2.03217e-16 0.0 -3.88251e-19 -4.831 -41.4757 -18.9878 -0.719984 53.9359 1.32148 -1.62376 -30.3005 -2.53097 2.03217e-16 0.0 3.88251e-19 15.0702 -32.1026 5.70834 0.802691 58.8954 -2.10864 9.33653 -39.8539 13.5211
94.1186 78.9715 86.0052 -11.1126 62.764 -4.9158 -3.97205 14.3962 -10.8948 4.63646 -8.30626 -2.86567 -4.47729 -1.09343 -10.1475 17.7814 20.5508 -21.1292 -0.0 0.0 0.0 -0.0 0.0 0.0 7.3013e-14 -1.19877e-13 1.62308e-13 58.0641 37.3929 0.395151 -22.619 -16.7158 45.497 -0.0132875 -3.28924 -0.462786 -5.20409e-10 -2.99853e-10 -1.71906e-10 -8.98485e-10 -5.17635e-10 -2.98159e-10 -5.20408e-10 -2.99849e-10 -1.71922e-10 7.73091 5.47488 0.417314 -5.2041e-10 -2.99854e-10 -1.71912e-10 2.90554 0.965183 0.102902 -5.20405e-10 -2.99856e-10 -1.71908e-10 10.2786 0.731801 0.0259123 -5.20417e-10 -2.99856e-10 -1.71903e-10 2.22167 -0.733487 -0.20892 7.30984e-14 -1.19856e-13 1.62109e-13 -48.4191 47.0905 -40.3924 25.4606 -22.1221 -54.6337 0.696994 -23.015 3.42256 -7.58451e-10 -1.6695e-09 6.48515e-11 -1.30878e-09 -2.83754e-09 9.55733e-11 -7.58453e-10 -1.66949e-09 6.48611e-11 -7.73091 5.47488 -0.417314 -7.58444e-10 -1.66949e-09 6.48452e-11 -2.90554 0.965183 -0.102902 -7.58458e-10 -1.6695e-09 6.48539e-11 -10.2786 0.731801 -0.0259123 -7.5845e-10 -1.6695e-09 6.48547e-11 -2.22167 -0.733487 0.20892 -2.03217e-16 0.0 -3.88251e-19 -4.82309 -41.2998 -19.2963 -0.721368 54.049 1.34283 -1.86144 -31.0218 -2.92482 2.03217e-16 0.0 3.88251e-19 14.4164 -32.1851 3.79689 0.781436 58.5311 -2.09618 9.60655 -40.6628 13.7067
93.6161 78.8738 88.2769 -12.4762 64.0122 -6.3809 -3.79971 14.5795 -11.3366 4.66498 -8.36003 -2.98163 -4.56159 -0.898581 -10.3127 18.2772 20.5659 -21.5185 -0.0 0.0 0.0 -0.0 0.0 0.0 8.74293e-14 -1.31716e-13 -1.75633e-13 59.2389 37.3841 -0.727832 -22.7729 -16.9639 45.9314 -0.0138045 -3.34808 -0.471086 -1.00668e-10 -2.09594e-09 7.86544e-10 -1.75588e-10 -3.61517e-09 1.35608e-09 -1.00666e-10 -2.09594e-09 7.86531e-10 7.73091 5.47488 0.417314 -1.00669e-10 -2.09594e-09 7.86539e-10 2.90554 0.965183 0.102902 -1.00664e-10 -2.09595e-09 7.86544e-10 10.2786 0.731801 0.0259123 -1.00675e-10 -2.09595e-09 7.8655e-10 2.22167 -0.733487 -0.20892 8.74851e-14 -1.31701e-13 -1.75837e-13 -48.6097 47.1838 -40.1676 25.3769 -21.9296 -54.3187 0.701351 -23.082 3.4337 -1.26524e-10 -1.77345e-10 -3.714e-11 -2.16421e-10 -3.02143e-10 -6.34827e-11 -1.26527e-10 -1.77331e-10 -3.71303e-11 -7.73091 5.47488 -0.417314 -1.26517e-10 -1.77335e-10 -3.71456e-11 -2.90554 0.965183 -0.102902 -1.26532e-10 -1.77342e-10 -3.7138e-11 -10.2786 0.731801 -0.0259123 -1.26523e-10 -1.7734e-10 -3.71378e-11 -2.22167 -0.733487 0.20892 -2.03217e-16 0.0 -3.88251e-19 -4.81903 -41.2053 -19.6031 -0.725705 54.2192 1.36346 -2.04902 -31.7265 -3.22904 2.03217e-16 0.0 3.88251e-19 13.9684 -32.4221 2.1624 0.77242 58.3564 -2.08166 9.5697 -41.0713 13.5634
93.0973 78.7713 90.5464 -13.8843 65.1842 -7.8651 -3.62057 14.7839 -11.7396 4.68663 -8.43519 -3.08546 -4.68428 -0.698634 -10.4948 18.8407 20.5523 -21.9393 -0.0 0.0 0.0 -0.0 0.0 0.0 6.10099e-14 -7.29421e-14 -5.54118e-13 60.4796 37.281 -1.89173 -22.9269 -17.2162 46.3705 -0.0141521 -3.38657 -0.476516 5.37486e-10 -4.15968e-09 2.01069e-09 9.23958e-10 -7.17485e-09 3.4694e-09 5.37489e-10 -4.15968e-09 2.01068e-09 7.73091 5.47488 0.417314 5.37486e-10 -4.15969e-09 2.01068e-09 2.90554 0.965183 0.102902 5.3749e-10 -4.15969e-09 2.01069e-09 10.2786 0.731801 0.0259123 5.3748e-10 -4.15969e-09 2.0107e-09 2.22167 -0.733487 -0.20892 6.1023e-14 -7.29408e-14 -5.54342e-13 -48.7697 47.2421 -39.9717 25.2897 -21.7321 -53.9962 0.706107 -23.1548 3.44582 7.75317e-10 2.69563e-09 -4.72874e-10 1.34767e-09 4.61415e-09 -7.93281e-10 7.75312e-10 2.69564e-09 -4.72863e-10 -7.73091 5.47488 -0.417314 7.75323e-10 2.69563e-09 -4.72877e-10 -2.90554 0.965183 -0.102902 7.75309e-10 2.69563e-09 -4.72872e-10 -10.2786 0.731801 -0.0259123 7.75318e-10 2.69563e-09 -4.72875e-10 -2.22167 -0.733487 0.20892 -2.03217e-16 0.0 -3.88251e-19 -4.82968 -41.1754 -19.9214 -0.733038 54.4435 1.38377 -2.17424 -32.4166 -3.43005 2.03217e-16 0.0 3.88251e-19 13.6601 -32.7643 0.644873 0.777313 58.3753 -2.06732 9.1477 -41.1823 12.9632
92.5609 78.674 92.8182 -15.2975 66.2683 -9.3211 -3.48334 14.9759 -12.0655 4.71099 -8.50417 -3.16853 -4.82251 -0.498221 -10.6904 19.4315 20.496 -22.3817 -0.0 0.0 0.0 -0.0 0.0 0.0 2.492e-14 -8.16132e-15 -8.69387e-13 61.7692 37.0755 -3.07255 -23.072 -17.4574 46.7915 -0.0141508 -3.38714 -0.476595 1.12833e-09 -5.79176e-09 3.04741e-09 1.94225e-09 -9.98989e-09 5.25933e-09 1.12834e-09 -5.79176e-09 3.04741e-09 7.73091 5.47488 0.417314 1.12833e-09 -5.79176e-09 3.04742e-09 2.90554 0.965183 0.102902 1.12833e-09 -5.79176e-09 3.04742e-09 10.2786 0.731801 0.0259123 1.12833e-09 -5.79177e-09 3.04743e-09 2.22167 -0.733487 -0.20892 2.48866e-14 -8.17341e-15 -8.6963e-13 -48.8791 47.2721 -39.8164 25.1988 -21.5291 -53.6636 0.709892 -23.2124 3.45542 1.59818e-09 5.42715e-09 -9.00009e-10 2.77522e-09 9.29271e-09 -1.51061e-09 1.59818e-09 5.42716e-09 -8.99998e-10 -7.73091 5.47488 -0.417314 1.59819e-09 5.42716e-09 -9.0001e-10 -2.90554 0.965183 -0.102902 1.59817e-09 5.42715e-09 -9.00008e-10 -10.2786 0.731801 -0.0259123 1.59818e-09 5.42715e-09 -9.00013e-10 -2.22167 -0.733487 0.20892 -2.03217e-16 0.0 -3.88251e-19 -4.84429 -41.2051 -20.2334 -0.741767 54.6907 1.40387 -2.27753 -33.0563 -3.59498 2.03217e-16 0.0 3.88251e-19 13.4814 -33.1972 -0.634883 0.791041 58.5345 -2.05714 8.58244 -41.0574 12.2154
